<svg width="20" height="17" viewBox="0 0 20 17" fill="none" xmlns="http://www.w3.org/2000/svg">
<path d="M17.1016 1.5C17.9453 2.23828 18.5078 3.11719 18.8242 4.10156C19.0703 5.01562 19.0703 5.96484 18.8242 6.91406C18.543 7.86328 18.1211 8.67188 17.4883 9.30469L11.3359 15.5625C10.9492 15.9492 10.4922 16.125 10 16.125C9.47266 16.125 9.01562 15.9492 8.66406 15.5625L2.51172 9.30469C1.87891 8.67188 1.42188 7.86328 1.17578 6.91406C0.894531 5.96484 0.929688 5.01562 1.21094 4.10156C1.49219 3.11719 2.05469 2.23828 2.89844 1.5C3.53125 0.9375 4.30469 0.585938 5.18359 0.445312C6.02734 0.304688 6.90625 0.375 7.75 0.65625C8.59375 0.9375 9.36719 1.39453 10 2.02734C10.6328 1.39453 11.3711 0.9375 12.2148 0.65625C13.0586 0.375 13.9375 0.304688 14.8164 0.445312C15.6602 0.585938 16.4336 0.9375 17.1016 1.5ZM16.293 8.10938C16.7148 7.6875 16.9961 7.125 17.1719 6.49219C17.3477 5.85938 17.3477 5.19141 17.1719 4.55859C16.9609 3.89062 16.5742 3.29297 16.0117 2.80078C15.3086 2.23828 14.5 1.99219 13.5859 2.0625C12.6719 2.13281 11.8633 2.51953 11.2305 3.1875L10 4.41797L8.76953 3.1875C8.10156 2.51953 7.29297 2.13281 6.37891 2.0625C5.46484 1.99219 4.65625 2.23828 3.98828 2.80078C3.39062 3.29297 3.00391 3.89062 2.82812 4.55859C2.61719 5.19141 2.61719 5.85938 2.79297 6.49219C2.96875 7.125 3.28516 7.6875 3.70703 8.10938L9.89453 14.3672C9.96484 14.4727 10.0352 14.4727 10.1055 14.3672L16.293 8.10938Z" fill="#FC591E"/>
<path d="M17.1016 1.5L17.1345 1.46236L17.1338 1.46175L17.1016 1.5ZM18.8242 4.10156L18.8726 4.08855L18.8718 4.08626L18.8242 4.10156ZM18.8242 6.91406L18.8722 6.92828L18.8726 6.92661L18.8242 6.91406ZM17.4883 9.30469L17.4529 9.26933L17.4526 9.26963L17.4883 9.30469ZM11.3359 15.5625L11.3713 15.5979L11.3716 15.5976L11.3359 15.5625ZM8.66406 15.5625L8.70109 15.5288L8.69972 15.5274L8.66406 15.5625ZM2.51172 9.30469L2.54737 9.26963L2.54707 9.26933L2.51172 9.30469ZM1.17578 6.91406L1.22421 6.90151L1.22372 6.89986L1.17578 6.91406ZM1.21094 4.10156L1.25874 4.11627L1.25901 4.1153L1.21094 4.10156ZM2.89844 1.5L2.93136 1.53763L2.93166 1.53737L2.89844 1.5ZM5.18359 0.445312L5.19149 0.494686L5.19181 0.494632L5.18359 0.445312ZM10 2.02734L9.96464 2.0627L10 2.09805L10.0354 2.0627L10 2.02734ZM14.8164 0.445312L14.8246 0.395992L14.8243 0.395941L14.8164 0.445312ZM16.293 8.10938L16.2576 8.07402L16.2574 8.07422L16.293 8.10938ZM17.1719 4.55859L17.2201 4.5452L17.2196 4.54354L17.1719 4.55859ZM16.0117 2.80078L16.0447 2.76312L16.043 2.76174L16.0117 2.80078ZM11.2305 3.1875L11.2658 3.22287L11.2668 3.22189L11.2305 3.1875ZM10 4.41797L9.96464 4.45332L10 4.48868L10.0354 4.45332L10 4.41797ZM3.98828 2.80078L4.02007 2.83938L4.02049 2.83903L3.98828 2.80078ZM2.82812 4.55859L2.87566 4.57444L2.87648 4.57132L2.82812 4.55859ZM3.70703 8.10938L3.74259 8.07422L3.74239 8.07402L3.70703 8.10938ZM9.89453 14.3672L9.93691 14.3389L9.93009 14.332L9.89453 14.3672ZM10.1055 14.3672L10.0693 14.3314L10.0639 14.3395L10.1055 14.3672ZM17.0686 1.53763C17.9055 2.26991 18.463 3.14109 18.7766 4.11686L18.8718 4.08626C18.5526 3.09328 17.9851 2.20665 17.1345 1.46237L17.0686 1.53763ZM18.7759 4.11456C19.0197 5.01995 19.0198 5.96036 18.7758 6.90151L18.8726 6.92661C19.1208 5.96932 19.1209 5.0113 18.8725 4.08856L18.7759 4.11456ZM18.7763 6.89986C18.4967 7.8435 18.0783 8.64397 17.4529 9.26933L17.5236 9.34004C18.1639 8.69978 18.5893 7.88306 18.8722 6.92827L18.7763 6.89986ZM17.4526 9.26963L11.3003 15.5274L11.3716 15.5976L17.5239 9.33974L17.4526 9.26963ZM11.3006 15.5271C10.9233 15.9044 10.4791 16.075 10 16.075V16.175C10.5053 16.175 10.9751 15.9941 11.3713 15.5979L11.3006 15.5271ZM10 16.075C9.4848 16.075 9.04191 15.9038 8.70106 15.5289L8.62707 15.5961C8.98934 15.9946 9.46051 16.175 10 16.175V16.075ZM8.69972 15.5274L2.54737 9.26963L2.47606 9.33974L8.62841 15.5976L8.69972 15.5274ZM2.54707 9.26933C1.92098 8.64324 1.46819 7.8427 1.22418 6.90151L1.12738 6.92661C1.37556 7.88387 1.83683 8.70051 2.47636 9.34004L2.54707 9.26933ZM1.22372 6.89986C0.945529 5.96096 0.98009 5.02183 1.25873 4.11627L1.16315 4.08686C0.879285 5.00942 0.843534 5.96873 1.12784 6.92827L1.22372 6.89986ZM1.25901 4.1153C1.53745 3.14076 2.09439 2.26998 2.93136 1.53763L2.86551 1.46237C2.01498 2.20659 1.44692 3.09362 1.16286 4.08783L1.25901 4.1153ZM2.93166 1.53737C3.55675 0.981731 4.32118 0.633935 5.19149 0.494684L5.17569 0.395941C4.2882 0.53794 3.50575 0.893269 2.86522 1.46263L2.93166 1.53737ZM5.19181 0.494632C6.02731 0.355383 6.89797 0.424944 7.73419 0.703684L7.76581 0.608816C6.91453 0.325056 6.02738 0.253992 5.17537 0.395993L5.19181 0.494632ZM7.73419 0.703684C8.57122 0.982695 9.33778 1.43584 9.96464 2.0627L10.0354 1.99199C9.39659 1.35323 8.61628 0.892305 7.76581 0.608816L7.73419 0.703684ZM10.0354 2.0627C10.6627 1.43534 11.3943 0.982464 12.2307 0.703684L12.199 0.608816C11.3479 0.892536 10.6029 1.35372 9.96464 1.99199L10.0354 2.0627ZM12.2307 0.703684C13.0667 0.424998 13.9375 0.355321 14.8085 0.494684L14.8243 0.395941C13.9375 0.254054 13.0505 0.325002 12.199 0.608816L12.2307 0.703684ZM14.8082 0.494632C15.6432 0.633801 16.4083 0.981591 17.0694 1.53825L17.1338 1.46175C16.4589 0.893409 15.6771 0.538074 14.8246 0.395993L14.8082 0.494632ZM16.3283 8.14473C16.7581 7.715 17.0427 7.1439 17.2201 6.50557L17.1237 6.47881C16.9495 7.1061 16.6716 7.66 16.2576 8.07402L16.3283 8.14473ZM17.2201 6.50557C17.3983 5.864 17.3983 5.18678 17.2201 4.54521L17.1237 4.57198C17.297 5.19603 17.297 5.85475 17.1237 6.47881L17.2201 6.50557ZM17.2196 4.54354C17.0058 3.86669 16.6139 3.26127 16.0446 2.76315L15.9788 2.83841C16.5345 3.32467 16.9161 3.91456 17.1242 4.57365L17.2196 4.54354ZM16.043 2.76174C15.3297 2.19116 14.5085 1.94138 13.5821 2.01265L13.5898 2.11235C14.4915 2.04299 15.2875 2.2854 15.9805 2.83982L16.043 2.76174ZM13.5821 2.01265C12.6556 2.08392 11.8355 2.4762 11.1942 3.15311L11.2668 3.22189C11.8911 2.56286 12.6882 2.18171 13.5898 2.11235L13.5821 2.01265ZM11.1951 3.15214L9.96464 4.38261L10.0354 4.45332L11.2658 3.22286L11.1951 3.15214ZM10.0354 4.38261L8.80489 3.15214L8.73418 3.22286L9.96464 4.45332L10.0354 4.38261ZM8.80489 3.15214C8.12901 2.47626 7.30943 2.08393 6.38274 2.01265L6.37507 2.11235C7.27651 2.18169 8.07412 2.5628 8.73418 3.22286L8.80489 3.15214ZM6.38274 2.01265C5.45656 1.9414 4.63478 2.191 3.95607 2.76254L4.02049 2.83903C4.67772 2.28557 5.47313 2.04297 6.37507 2.11235L6.38274 2.01265ZM3.9565 2.76218C3.35137 3.26052 2.95842 3.86699 2.77977 4.54587L2.87648 4.57132C3.04939 3.91426 3.42988 3.32541 4.02007 2.83938L3.9565 2.76218ZM2.78069 4.54278C2.56635 5.18581 2.56657 5.86398 2.74479 6.50557L2.84114 6.47881C2.6678 5.85477 2.66803 5.19701 2.87556 4.57441L2.78069 4.54278ZM2.74479 6.50557C2.92261 7.14572 3.24303 7.71608 3.67168 8.14473L3.74239 8.07402C3.32728 7.65892 3.01489 7.10428 2.84114 6.47881L2.74479 6.50557ZM3.67148 8.14453L9.85898 14.4023L9.93009 14.332L3.74259 8.07422L3.67148 8.14453ZM9.85293 14.3949C9.8901 14.4507 9.9383 14.4963 10 14.4963C10.0617 14.4963 10.1099 14.4507 10.1471 14.3949L10.0639 14.3395C10.0307 14.3892 10.0086 14.3963 10 14.3963C9.99139 14.3963 9.96928 14.3892 9.93613 14.3395L9.85293 14.3949ZM10.141 14.4023L16.3285 8.14453L16.2574 8.07422L10.0699 14.332L10.141 14.4023Z" fill="white"/>
</svg>
