<svg width="20" height="20" viewBox="0 0 20 20" fill="none" xmlns="http://www.w3.org/2000/svg">
<path d="M10 4.80859C10.8594 4.80859 11.6758 5.06641 12.4492 5.49609C13.2227 5.92578 13.8242 6.52734 14.2539 7.30078C14.6836 8.07422 14.9414 8.89062 14.9414 9.75C14.9414 10.6523 14.6836 11.4688 14.2539 12.2422C13.8242 13.0156 13.2227 13.6172 12.4492 14.0469C11.6758 14.4766 10.8594 14.6914 10 14.6914C9.09766 14.6914 8.28125 14.4766 7.50781 14.0469C6.73438 13.6172 6.13281 13.0156 5.70312 12.2422C5.27344 11.4688 5.05859 10.6523 5.05859 9.75C5.05859 8.89062 5.27344 8.07422 5.70312 7.30078C6.13281 6.52734 6.73438 5.92578 7.50781 5.49609C8.28125 5.06641 9.09766 4.80859 10 4.80859ZM10 12.9727C10.8594 12.9727 11.6328 12.6719 12.2773 12.0273C12.8789 11.4258 13.2227 10.6523 13.2227 9.75C13.2227 8.89062 12.8789 8.11719 12.2773 7.47266C11.6328 6.87109 10.8594 6.52734 10 6.52734C9.09766 6.52734 8.32422 6.87109 7.72266 7.47266C7.07812 8.11719 6.77734 8.89062 6.77734 9.75C6.77734 10.6523 7.07812 11.4258 7.72266 12.0273C8.32422 12.6719 9.09766 12.9727 10 12.9727ZM16.3164 4.59375C16.3164 4.29297 16.1875 4.03516 15.9727 3.77734C15.7148 3.5625 15.457 3.43359 15.1562 3.43359C14.8125 3.43359 14.5547 3.5625 14.3398 3.77734C14.082 4.03516 13.9961 4.29297 13.9961 4.59375C13.9961 4.9375 14.082 5.19531 14.3398 5.41016C14.5547 5.66797 14.8125 5.75391 15.1562 5.75391C15.457 5.75391 15.7148 5.66797 15.9297 5.41016C16.1445 5.19531 16.2734 4.9375 16.3164 4.59375ZM19.582 5.75391C19.582 6.57031 19.625 7.90234 19.625 9.75C19.625 11.6406 19.582 12.9727 19.5391 13.7891C19.4961 14.6055 19.3672 15.293 19.1953 15.8945C18.9375 16.625 18.5078 17.2695 17.9922 17.7852C17.4766 18.3008 16.832 18.6875 16.1445 18.9453C15.543 19.1602 14.8125 19.2891 13.9961 19.332C13.1797 19.375 11.8477 19.375 10 19.375C8.10938 19.375 6.77734 19.375 5.96094 19.332C5.14453 19.2891 4.45703 19.1602 3.85547 18.9023C3.125 18.6875 2.48047 18.3008 1.96484 17.7852C1.44922 17.2695 1.0625 16.625 0.804688 15.8945C0.589844 15.293 0.460938 14.6055 0.417969 13.7891C0.375 12.9727 0.375 11.6406 0.375 9.75C0.375 7.90234 0.375 6.57031 0.417969 5.75391C0.460938 4.9375 0.589844 4.20703 0.804688 3.60547C1.0625 2.91797 1.44922 2.27344 1.96484 1.75781C2.48047 1.24219 3.125 0.8125 3.85547 0.554688C4.45703 0.382812 5.14453 0.253906 5.96094 0.210938C6.77734 0.167969 8.10938 0.125 10 0.125C11.8477 0.125 13.1797 0.167969 13.9961 0.210938C14.8125 0.253906 15.543 0.382812 16.1445 0.554688C16.832 0.8125 17.4766 1.24219 17.9922 1.75781C18.5078 2.27344 18.9375 2.91797 19.1953 3.60547C19.3672 4.20703 19.4961 4.9375 19.582 5.75391ZM17.5195 15.4219C17.6914 14.9492 17.7773 14.1758 17.8633 13.1016C17.8633 12.5 17.9062 11.5977 17.9062 10.4375V9.0625C17.9062 7.90234 17.8633 7 17.8633 6.39844C17.7773 5.32422 17.6914 4.55078 17.5195 4.07812C17.1758 3.21875 16.5312 2.57422 15.6719 2.23047C15.1992 2.05859 14.4258 1.97266 13.3516 1.88672C12.707 1.88672 11.8047 1.84375 10.6875 1.84375H9.3125C8.15234 1.84375 7.25 1.88672 6.64844 1.88672C5.57422 1.97266 4.80078 2.05859 4.32812 2.23047C3.42578 2.57422 2.82422 3.21875 2.48047 4.07812C2.30859 4.55078 2.17969 5.32422 2.13672 6.39844C2.09375 7.04297 2.09375 7.94531 2.09375 9.0625V10.4375C2.09375 11.5977 2.09375 12.5 2.13672 13.1016C2.17969 14.1758 2.30859 14.9492 2.48047 15.4219C2.82422 16.3242 3.46875 16.9258 4.32812 17.2695C4.80078 17.4414 5.57422 17.5703 6.64844 17.6133C7.25 17.6562 8.15234 17.6562 9.3125 17.6562H10.6875C11.8477 17.6562 12.75 17.6562 13.3516 17.6133C14.4258 17.5703 15.1992 17.4414 15.6719 17.2695C16.5312 16.9258 17.1758 16.2812 17.5195 15.4219Z" fill="#FC591E"/>
</svg>
