<svg xmlns:xlink="http://www.w3.org/1999/xlink" xmlns="http://www.w3.org/2000/svg" viewBox="0 0 160.7 123.97" width="300"  height="300" ><defs><style>.cls-1{fill:#878787}</style></defs><g id="Layer_2" data-name="Layer 2"><g id="Layer_1-2" data-name="Layer 1"><path class="cls-1" d="M72.53 0v69.93c0 15-5.56 24.22-18.83 24.22s-19.19-9.22-19.19-24.22V0H0v69.93c0 38.69 22.5 54 53.17 54s53.83-15.31 53.83-54V0z"/><path d="M92 13.66h63.1v15H92z" fill="#606060"/><path d="M102.78 24.79h-2l-.36-1.66a31.48 31.48 0 01-.49-3.13c0 .57-.29 2-.53 3.17l-.35 1.66h-1.94l-1.83-7.68h2.18l.21 1.27c.18 1.09.39 2.43.46 3.31a27 27 0 01.56-3.31l.25-1.3h1.94l.24 1.3a26.48 26.48 0 01.57 3.31c.07-.92.28-2.25.45-3.31l.22-1.27h2.18l-1.76 7.68zm5.21 0v-7.68h5.84v1.8h-3.73v1h2.26v1.76h-2.26V23h3.84v1.8m3.52 0v-7.69h5.88v1.8h-3.77v1h2.26v1.76h-2.26V23h3.84v1.8m8.1 0l-1.58-3.28-.78.95v2.33H127v-7.69h2.15v2.79c.31-.49 1-1.37 1.47-2l.6-.78h2.57l-2.32 2.71 2.57 5zm5.67 0v-7.69h2.15v5.81h3.38v1.87m6.23-2.85v2.85h-2.15V22l-2.85-4.82h2.46l.6 1.16a15.66 15.66 0 01.88 2 11.81 11.81 0 01.88-2l.6-1.16h2.43l-2.85 4.79z" fill="#fff"/><path class="cls-1" d="M124.5 62c-8-2.43-9.08-3.49-9.08-6.27s1.58-4 7.67-4c8 0 17.08 2.43 29.12 7.67l7-24.22C147 30.84 137.74 28.59 124 28.59c-24.92 0-37.32 11.16-37.32 30 0 19 9.76 24.75 38 32.25 5.92 1.59 7.33 2.78 7.33 5.74 0 2.78-2.26 4.19-8.38 4.19-8 0-20.57-3.13-31.55-8l-7.32 23.7a106.2 106.2 0 0038.16 7.5c23.35 0 37.82-9.75 37.82-30.84C160.77 75 150.31 68.87 124.5 62"/></g></g></svg>