<svg width="18" height="19" viewBox="0 0 18 19" fill="none" xmlns="http://www.w3.org/2000/svg">
<path d="M17.7188 8.40625C17.7188 9.95312 17.2617 11.1836 16.3477 12.0977C15.3633 13.082 14.0625 13.5742 12.375 13.5742C11.7422 13.5742 11.2852 13.5039 11.0039 13.3281C10.582 13.1172 10.3711 12.7656 10.3008 12.2383C9.94922 12.6953 9.52734 13.0469 9.03516 13.3281C8.50781 13.6094 7.98047 13.75 7.48828 13.75C6.43359 13.75 5.625 13.4336 5.0625 12.7656C4.5 12.1328 4.21875 11.2539 4.21875 10.1641C4.21875 9.14453 4.42969 8.23047 4.85156 7.38672C5.27344 6.57812 5.87109 5.94531 6.60938 5.48828C7.3125 5.03125 8.12109 4.78516 8.96484 4.78516C9.45703 4.78516 9.91406 4.89062 10.3359 5.06641C10.7227 5.27734 11.0391 5.52344 11.25 5.875L11.3203 5.38281C11.3203 5.27734 11.3906 5.20703 11.4609 5.13672C11.5312 5.06641 11.6367 5.03125 11.7422 5.03125H13.1133C13.2539 5.03125 13.3594 5.10156 13.4297 5.20703C13.5 5.3125 13.5352 5.41797 13.5352 5.52344L12.5508 10.7617C12.4453 11.1484 12.4453 11.4297 12.5156 11.6055C12.5859 11.7812 12.7617 11.8516 13.1133 11.8516C13.8867 11.8516 14.5547 11.5703 15.1172 10.9727C15.7148 10.3398 16.0312 9.46094 16.0312 8.40625C16.0312 7.14062 15.6797 6.05078 15.0469 5.06641C14.4492 4.15234 13.6055 3.44922 12.5508 2.95703C11.4609 2.46484 10.2656 2.21875 9 2.21875C7.73438 2.21875 6.53906 2.53516 5.48438 3.16797C4.39453 3.80078 3.55078 4.67969 2.91797 5.73438C2.28516 6.82422 1.96875 7.98438 1.96875 9.25C1.96875 10.5156 2.28516 11.7109 2.91797 12.7656C3.55078 13.8555 4.39453 14.6992 5.48438 15.332C6.53906 15.9648 7.73438 16.2812 9 16.2812C10.5117 16.2812 11.8828 15.8594 13.1484 14.9453C13.2188 14.875 13.2891 14.875 13.4297 14.875C13.5352 14.875 13.6406 14.9453 13.7109 15.0156L14.2383 15.6484C14.3086 15.7539 14.3086 15.8594 14.3086 16C14.3086 16.1406 14.2383 16.2109 14.168 16.2812C13.3945 16.8438 12.5859 17.2656 11.707 17.5469C10.8281 17.8281 9.91406 17.9688 9 17.9688C7.41797 17.9688 5.97656 17.582 4.64062 16.8086C3.30469 16.0352 2.21484 14.9453 1.44141 13.6094C0.667969 12.2734 0.28125 10.832 0.28125 9.25C0.28125 7.70312 0.667969 6.22656 1.44141 4.89062C2.21484 3.55469 3.30469 2.5 4.64062 1.72656C5.97656 0.953125 7.41797 0.53125 9.03516 0.53125C10.6172 0.53125 12.0586 0.882812 13.3945 1.51562C14.7305 2.18359 15.75 3.09766 16.5234 4.22266C17.2969 5.45312 17.7188 6.85938 17.7188 8.40625ZM8.08594 11.8164C8.78906 11.8164 9.38672 11.5 9.91406 10.832C10.4414 10.1641 10.7227 9.39062 10.7227 8.51172C10.7227 7.98438 10.582 7.5625 10.3008 7.21094C10.0195 6.89453 9.59766 6.71875 9.10547 6.71875C8.68359 6.71875 8.26172 6.85938 7.875 7.14062C7.45312 7.42188 7.13672 7.77344 6.89062 8.26562C6.60938 8.79297 6.50391 9.35547 6.50391 9.98828C6.50391 10.5859 6.64453 11.043 6.92578 11.3594C7.20703 11.6758 7.59375 11.8164 8.08594 11.8164Z" fill="#FC591E"/>
<path d="M11.0039 13.3281L11.0305 13.2855L11.0263 13.2834L11.0039 13.3281ZM10.3008 12.2383L10.3503 12.2317L10.3345 12.1125L10.2612 12.2078L10.3008 12.2383ZM9.03516 13.3281L9.0587 13.3723L9.05996 13.3715L9.03516 13.3281ZM5.0625 12.7656L5.10076 12.7334L5.09987 12.7324L5.0625 12.7656ZM4.85156 7.38672L4.80723 7.36359L4.80684 7.36436L4.85156 7.38672ZM6.60938 5.48828L6.6357 5.5308L6.63662 5.5302L6.60938 5.48828ZM10.3359 5.06641L10.36 5.02227L10.3552 5.02025L10.3359 5.06641ZM11.25 5.875L11.2071 5.90072L11.2796 6.02148L11.2995 5.88207L11.25 5.875ZM11.3203 5.38281L11.3703 5.38996V5.38281H11.3203ZM13.5352 5.52344L13.5852 5.53283V5.52344H13.5352ZM12.5508 10.7617L12.5992 10.7749L12.5999 10.771L12.5508 10.7617ZM15.1172 10.9727L15.0808 10.9383L15.0808 10.9384L15.1172 10.9727ZM15.0469 5.06641L15.0889 5.03937L15.0887 5.03904L15.0469 5.06641ZM12.5508 2.95703L12.5719 2.91172L12.5714 2.91146L12.5508 2.95703ZM5.48438 3.16797L5.50948 3.21121L5.5101 3.21084L5.48438 3.16797ZM2.91797 5.73438L2.87509 5.70865L2.87473 5.70927L2.91797 5.73438ZM2.91797 12.7656L2.96121 12.7405L2.96084 12.7399L2.91797 12.7656ZM5.48438 15.332L5.5101 15.2892L5.50948 15.2888L5.48438 15.332ZM13.1484 14.9453L13.1781 14.9864L13.1838 14.9807L13.1484 14.9453ZM13.7109 15.0156L13.7495 14.9835L13.7463 14.9803L13.7109 15.0156ZM14.2383 15.6484L14.2801 15.6205L14.2767 15.6164L14.2383 15.6484ZM14.168 16.2812L14.1977 16.3222L14.2033 16.3166L14.168 16.2812ZM13.3945 1.51562L13.4169 1.47089L13.4159 1.47044L13.3945 1.51562ZM16.5234 4.22266L16.5658 4.19603L16.5646 4.19433L16.5234 4.22266ZM10.3008 7.21094L10.3399 7.17966L10.3382 7.17772L10.3008 7.21094ZM7.875 7.14062L7.90276 7.18226L7.90441 7.18106L7.875 7.14062ZM6.89062 8.26562L6.93476 8.28916L6.93535 8.28799L6.89062 8.26562ZM17.6688 8.40625C17.6688 9.94266 17.2152 11.1594 16.3123 12.0623L16.383 12.133C17.3083 11.2078 17.7687 9.96359 17.7687 8.40625H17.6688ZM16.3123 12.0623C15.339 13.0356 14.0519 13.5242 12.375 13.5242V13.6242C14.0731 13.6242 15.3875 13.1285 16.383 12.133L16.3123 12.0623ZM12.375 13.5242C11.7427 13.5242 11.2986 13.4533 11.0304 13.2857L10.9774 13.3705C11.2717 13.5545 11.7417 13.6242 12.375 13.6242V13.5242ZM11.0263 13.2834C10.8228 13.1817 10.6717 13.0469 10.5627 12.8751C10.4534 12.7027 10.3848 12.4905 10.3503 12.2317L10.2512 12.2449C10.287 12.5134 10.3591 12.7407 10.4783 12.9286C10.5978 13.1171 10.7632 13.2637 10.9815 13.3728L11.0263 13.2834ZM10.2612 12.2078C9.91404 12.659 9.49741 13.0064 9.01035 13.2847L9.05996 13.3715C9.55728 13.0874 9.9844 12.7316 10.3404 12.2688L10.2612 12.2078ZM9.01163 13.284C8.49027 13.5621 7.97095 13.7 7.48828 13.7V13.8C7.98998 13.8 8.52535 13.6567 9.05869 13.3722L9.01163 13.284ZM7.48828 13.7C6.44422 13.7 5.65138 13.3873 5.10075 12.7334L5.02425 12.7978C5.59862 13.4799 6.42297 13.8 7.48828 13.8V13.7ZM5.09987 12.7324C4.54775 12.1113 4.26875 11.2455 4.26875 10.1641H4.16875C4.16875 11.2623 4.45225 12.1544 5.02513 12.7988L5.09987 12.7324ZM4.26875 10.1641C4.26875 9.1518 4.4781 8.24546 4.89628 7.40908L4.80684 7.36436C4.38128 8.21548 4.16875 9.13726 4.16875 10.1641H4.26875ZM4.89589 7.40985C5.31359 6.60926 5.905 5.98313 6.63569 5.53079L6.58306 5.44577C5.83718 5.9075 5.23329 6.54699 4.80723 7.36359L4.89589 7.40985ZM6.63662 5.5302C7.33183 5.07832 8.13099 4.83516 8.96484 4.83516V4.73516C8.11119 4.73516 7.29317 4.98418 6.58213 5.44636L6.63662 5.5302ZM8.96484 4.83516C9.4497 4.83516 9.90021 4.93902 10.3167 5.11256L10.3552 5.02025C9.92791 4.84223 9.46436 4.73516 8.96484 4.73516V4.83516ZM10.312 5.1103C10.6947 5.31903 11.0026 5.55978 11.2071 5.90072L11.2929 5.84928C11.0756 5.48709 10.7507 5.23566 10.3599 5.02251L10.312 5.1103ZM11.2995 5.88207L11.3698 5.38988L11.2708 5.37574L11.2005 5.86793L11.2995 5.88207ZM11.3703 5.38281C11.3703 5.3013 11.4231 5.24525 11.4963 5.17207L11.4256 5.10136C11.3581 5.16881 11.2703 5.25339 11.2703 5.38281H11.3703ZM11.4963 5.17207C11.5551 5.11326 11.6466 5.08125 11.7422 5.08125V4.98125C11.6268 4.98125 11.5074 5.01955 11.4256 5.10136L11.4963 5.17207ZM11.7422 5.08125H13.1133V4.98125H11.7422V5.08125ZM13.1133 5.08125C13.2345 5.08125 13.3255 5.14082 13.3881 5.23477L13.4713 5.1793C13.3933 5.0623 13.2733 4.98125 13.1133 4.98125V5.08125ZM13.3881 5.23477C13.454 5.3337 13.4852 5.42968 13.4852 5.52344H13.5852C13.5852 5.40625 13.546 5.2913 13.4713 5.1793L13.3881 5.23477ZM13.486 5.5142L12.5016 10.7525L12.5999 10.771L13.5843 5.53267L13.486 5.5142ZM12.5025 10.7486C12.3961 11.139 12.3928 11.4332 12.4692 11.624L12.562 11.5869C12.4978 11.4262 12.4946 11.1579 12.599 10.7749L12.5025 10.7486ZM12.4692 11.624C12.5097 11.7253 12.5817 11.7964 12.6901 11.8407C12.7957 11.8839 12.9353 11.9016 13.1133 11.9016V11.8016C12.9397 11.8016 12.8156 11.784 12.7279 11.7482C12.6429 11.7134 12.5918 11.6614 12.562 11.5869L12.4692 11.624ZM13.1133 11.9016C13.9006 11.9016 14.5817 11.6145 15.1536 11.0069L15.0808 10.9384C14.5276 11.5261 13.8728 11.8016 13.1133 11.8016V11.9016ZM15.1535 11.007C15.7616 10.3631 16.0812 9.47105 16.0812 8.40625H15.9813C15.9813 9.45082 15.6681 10.3166 15.0808 10.9383L15.1535 11.007ZM16.0812 8.40625C16.0812 7.13054 15.7267 6.03138 15.0889 5.03937L15.0048 5.09344C15.6327 6.07018 15.9813 7.15071 15.9813 8.40625H16.0812ZM15.0887 5.03904C14.4854 4.11638 13.6341 3.40742 12.5719 2.91172L12.5296 3.00234C13.5768 3.49102 14.413 4.18831 15.005 5.09377L15.0887 5.03904ZM12.5714 2.91146C11.4746 2.41615 10.2722 2.16875 9 2.16875V2.26875C10.2591 2.26875 11.4473 2.51354 12.5302 3.0026L12.5714 2.91146ZM9 2.16875C7.72586 2.16875 6.52156 2.48735 5.45865 3.12509L5.5101 3.21084C6.55656 2.58297 7.74289 2.26875 9 2.26875V2.16875ZM5.45927 3.12473C4.3614 3.7622 3.51181 4.64746 2.87509 5.70865L2.96084 5.7601C3.58975 4.71191 4.42766 3.83936 5.50948 3.21121L5.45927 3.12473ZM2.87473 5.70927C2.23753 6.80666 1.91875 7.97547 1.91875 9.25H2.01875C2.01875 7.99328 2.33278 6.84178 2.96121 5.75948L2.87473 5.70927ZM1.91875 9.25C1.91875 10.5241 2.23735 11.7284 2.87509 12.7913L2.96084 12.7399C2.33297 11.6934 2.01875 10.5071 2.01875 9.25H1.91875ZM2.87473 12.7907C3.51191 13.8881 4.36191 14.7381 5.45927 15.3753L5.50948 15.2888C4.42716 14.6603 3.58966 13.8228 2.96121 12.7405L2.87473 12.7907ZM5.45865 15.3749C6.52156 16.0127 7.72586 16.3312 9 16.3312V16.2313C7.74289 16.2313 6.55656 15.917 5.5101 15.2892L5.45865 15.3749ZM9 16.3312C10.5219 16.3312 11.9033 15.9062 13.1777 14.9858L13.1192 14.9048C11.8623 15.8125 10.5015 16.2313 9 16.2313V16.3312ZM13.1838 14.9807C13.2372 14.9273 13.285 14.925 13.4297 14.925V14.825C13.2931 14.825 13.2003 14.8227 13.1131 14.91L13.1838 14.9807ZM13.4297 14.925C13.5152 14.925 13.6085 14.9839 13.6756 15.051L13.7463 14.9803C13.6727 14.9067 13.5551 14.825 13.4297 14.825V14.925ZM13.6725 15.0476L14.1999 15.6804L14.2767 15.6164L13.7493 14.9836L13.6725 15.0476ZM14.1967 15.6762C14.2573 15.7672 14.2586 15.8571 14.2586 16H14.3586C14.3586 15.8616 14.3598 15.7406 14.2799 15.6207L14.1967 15.6762ZM14.2586 16C14.2586 16.1186 14.2024 16.1761 14.1326 16.2459L14.2033 16.3166C14.2742 16.2458 14.3586 16.1626 14.3586 16H14.2586ZM14.1386 16.2408C13.369 16.8005 12.5652 17.2198 11.6918 17.4993L11.7223 17.5945C12.6067 17.3115 13.42 16.887 14.1974 16.3217L14.1386 16.2408ZM11.6918 17.4993C10.8179 17.7789 9.90894 17.9188 9 17.9188V18.0187C9.91918 18.0187 10.8384 17.8773 11.7223 17.5945L11.6918 17.4993ZM9 17.9188C7.42664 17.9188 5.99389 17.5343 4.66568 16.7653L4.61557 16.8519C5.95923 17.6298 7.4093 18.0187 9 18.0187V17.9188ZM4.66568 16.7653C3.3373 15.9963 2.25374 14.9127 1.48468 13.5843L1.39813 13.6344C2.17595 14.9779 3.27208 16.0741 4.61557 16.8519L4.66568 16.7653ZM1.48468 13.5843C0.71571 12.2561 0.33125 10.8234 0.33125 9.25H0.23125C0.23125 10.8407 0.620228 12.2908 1.39813 13.6344L1.48468 13.5843ZM0.33125 9.25C0.33125 7.71169 0.715761 6.2438 1.48468 4.91568L1.39813 4.86557C0.620177 6.20932 0.23125 7.69456 0.23125 9.25H0.33125ZM1.48468 4.91568C2.25346 3.58779 3.3368 2.53918 4.66568 1.76983L4.61557 1.68329C3.27258 2.46082 2.17623 3.52159 1.39813 4.86557L1.48468 4.91568ZM4.66568 1.76983C5.99448 1.00053 7.42731 0.58125 9.03516 0.58125V0.48125C7.40863 0.48125 5.95864 0.905724 4.61557 1.68329L4.66568 1.76983ZM9.03516 0.58125C10.6094 0.58125 12.0436 0.931016 13.3731 1.56081L13.4159 1.47044C12.0736 0.834609 10.6249 0.48125 9.03516 0.48125V0.58125ZM13.3722 1.56035C14.7004 2.22448 15.7135 3.13287 16.4822 4.25098L16.5646 4.19433C15.7865 3.06245 14.7605 2.1427 13.4169 1.4709L13.3722 1.56035ZM16.4811 4.24926C17.2496 5.47182 17.6688 6.86886 17.6688 8.40625H17.7687C17.7687 6.84989 17.3442 5.43443 16.5658 4.19605L16.4811 4.24926ZM8.08594 11.8664C8.80727 11.8664 9.41844 11.5405 9.95331 10.863L9.87482 10.801C9.355 11.4595 8.77085 11.7664 8.08594 11.7664V11.8664ZM9.95331 10.863C10.4874 10.1865 10.7727 9.40219 10.7727 8.51172H10.6727C10.6727 9.37906 10.3954 10.1417 9.87482 10.801L9.95331 10.863ZM10.7727 8.51172C10.7727 7.97461 10.6291 7.54129 10.3398 7.1797L10.2617 7.24217C10.535 7.58371 10.6727 7.99414 10.6727 8.51172H10.7727ZM10.3382 7.17772C10.046 6.84904 9.60964 6.66875 9.10547 6.66875V6.76875C9.58567 6.76875 9.99307 6.94003 10.2634 7.24416L10.3382 7.17772ZM9.10547 6.66875C8.67208 6.66875 8.24006 6.8133 7.84559 7.10019L7.90441 7.18106C8.28338 6.90545 8.6951 6.76875 9.10547 6.76875V6.66875ZM7.84727 7.09902C7.41809 7.38514 7.09586 7.74336 6.8459 8.24326L6.93535 8.28799C7.17758 7.80352 7.48816 7.45861 7.90273 7.18223L7.84727 7.09902ZM6.84651 8.2421C6.5604 8.77854 6.45391 9.34967 6.45391 9.98828H6.55391C6.55391 9.36127 6.65835 8.8074 6.93474 8.28915L6.84651 8.2421ZM6.45391 9.98828C6.45391 10.5932 6.59622 11.0639 6.88841 11.3926L6.96315 11.3262C6.69285 11.0221 6.55391 10.5787 6.55391 9.98828H6.45391ZM6.88841 11.3926C7.18159 11.7224 7.5836 11.8664 8.08594 11.8664V11.7664C7.6039 11.7664 7.23248 11.6291 6.96315 11.3262L6.88841 11.3926Z" fill="white"/>
</svg>
