<svg width="166" height="33" viewBox="0 0 166 33" fill="none" xmlns="http://www.w3.org/2000/svg">
<path d="M71.9299 25.4312H76.7479V6.55515H83.0509V2.00115H65.6929V6.55515H71.9299V25.4312Z" fill="black"/>
<path d="M97.0452 25.4312H101.533L106.978 8.93116H102.127L99.0252 19.4912L95.6592 8.93116H92.1942L88.8612 19.4912L85.7262 8.93116H80.9082L86.3862 25.4312H90.8742L93.9432 16.0262L97.0452 25.4312Z" fill="black"/>
<path d="M113.803 3.35416C113.803 1.77016 112.516 0.483154 110.899 0.483154C109.348 0.483154 108.028 1.77016 108.028 3.35416C108.028 4.93815 109.348 6.22516 110.899 6.22516C112.516 6.22516 113.803 4.93815 113.803 3.35416ZM108.655 25.4312H113.176V8.93116H108.655V25.4312Z" fill="black"/>
<path d="M132.367 21.0422L128.44 18.9302C127.78 20.4482 126.361 21.5702 124.546 21.5702C122.17 21.5702 120.355 19.7222 120.355 17.1812C120.355 14.6402 122.17 12.7922 124.546 12.7922C126.361 12.7922 127.78 13.9142 128.44 15.4322L132.367 13.3202C130.948 10.4822 127.978 8.56816 124.546 8.56816C119.662 8.56816 115.801 12.1982 115.801 17.1812C115.801 22.1642 119.662 25.7942 124.546 25.7942C127.978 25.7942 130.948 23.8802 132.367 21.0422Z" fill="black"/>
<path d="M146.412 20.4152C146.412 17.5442 144.597 16.0922 141.627 15.3002L140.076 14.8382C138.69 14.4752 138.459 13.9142 138.459 13.4192C138.459 12.6602 139.317 12.2972 140.109 12.2972C141.198 12.2972 142.155 12.7922 142.914 13.7492L145.884 11.3402C144.63 9.52516 142.683 8.56816 140.175 8.56816C136.677 8.56816 134.037 10.5152 133.971 13.5512C133.905 16.0922 135.489 18.0392 138.525 18.8312L139.746 19.1282C141.561 19.6232 141.957 20.0192 141.957 20.7122C141.957 21.5372 141.066 21.9002 140.142 21.9002C138.558 21.9002 137.172 21.2072 136.446 19.9862L133.344 22.6262C134.763 24.7712 137.238 25.7942 140.142 25.7942C143.673 25.7942 146.412 23.6162 146.412 20.4152Z" fill="black"/>
<path d="M155 32.3282L165.362 8.93116H160.379L155.99 19.6232L151.568 8.93116H146.618L153.548 24.5072L150.083 32.3282H155Z" fill="black"/>
<path fill-rule="evenodd" clip-rule="evenodd" d="M30.8286 27.4939V16.4872L34.5593 18.6889C36.2354 19.6781 38.3961 19.1213 39.3853 17.4451C40.3745 15.769 39.8176 13.6084 38.1415 12.6192L29.134 7.30331C28.0725 6.67684 26.7608 6.65053 25.675 7.23394L15.7815 12.5498C14.0671 13.471 13.424 15.6076 14.3452 17.322C15.2664 19.0364 17.403 19.6795 19.1174 18.7583L24.2685 15.9905C24.265 16.053 24.2632 16.1159 24.2632 16.1792V27.2039C22.7222 28.472 20.7851 29.2057 18.7491 29.2521C15.9826 29.3151 13.3409 28.1019 11.5859 25.9624L2.40808 14.7739C-0.744336 10.9309 -0.184489 5.25998 3.65853 2.10757C7.50155 -1.04484 13.1725 -0.484993 16.3249 3.35803L18.212 5.65861L19.6893 3.68058C21.4721 1.29352 24.2124 0.043595 26.9794 0.0657178C29.5864 0.0619149 32.1739 1.1852 33.9562 3.35803L35.8434 5.65861L37.3207 3.68058C40.2949 -0.301905 45.9345 -1.11923 49.917 1.85504C53.8995 4.82931 54.7168 10.4689 51.7425 14.4514L43.3866 25.6398C41.7307 27.8569 39.147 29.1891 36.3805 29.2521C34.3655 29.298 32.4168 28.6668 30.8286 27.4939Z" fill="#FF553C"/>
</svg>
