<svg version="1.2" xmlns="http://www.w3.org/2000/svg" viewBox="0 0 300 77" width="300" height="77">
	<style>
		.s0 { fill: #878787 } 
		.s1 { fill: #ffffff } 
	</style>
	<g id="Path">
		<path id="Path 1" class="s0" d="m171.5 0.5q14.4 0.1 28.8 0c0 3.7 0 7.4 0 11.1c-5.7-0.1-11.4 0-17.1-0.1q0 11.2 0 22.4c4.4 0 8.7 0 13.1 0q0 5.1 0 10.2q-6.6 0-13.2 0c0 6.4 0 12.9 0 19.4c0 1.1 0 2.1 0 3.2c6.1 0 12.1-0.1 18.2 0q-0.1 5.1 0 10.2q-14.9 0.1-29.8 0q-0.1-9.5 0-19c0-19.1 0-38.3 0-57.4zm118.7-0.5q4.9 0 9.8 0q-5.6 19.7-11.2 39.4c-0.3 1.3-0.9 2.6-1.1 4c0 11.1 0.1 22.2 0 33.2q-5.9 0-11.8 0c-0.1-11.1 0-22.1-0.1-33.2c-1.1-4.3-2.5-8.4-3.8-12.7q-4-13.4-8.1-26.9c-0.4-1.2-0.8-2.3-1.1-3.5c3.8 0 7.5 0 11.2 0c1.1 4.7 2.4 9.4 3.6 14.1q2.1 8.1 4.2 16.2q4.2-15.3 8.4-30.6zm-209.1 0.5c3.9 0 7.8 0 11.6 0q3.3 21.5 6.6 43c1.3-9.6 2.5-19.1 3.8-28.6q1-7.2 1.9-14.4c3.5 0 7 0 10.6 0c0.1 0.3 0.1 0.6 0.1 0.9c2.1 13.8 4.3 27.5 6.4 41.3c0.5-3.2 0.8-6.4 1.2-9.5q2.1-16.4 4.2-32.7q4.9 0 9.8 0c-3.2 25.5-6.5 50.9-9.8 76.4q-5.4 0-10.9 0c-2.1-15.3-4.3-30.4-6.4-45.7c-2.5 15.2-4.9 30.5-7.3 45.7c-3.6 0-7.3 0-10.9 0q-5.4-38.2-10.9-76.4zm58 0c9.6 0 19.1 0.1 28.7 0c-0.1 3.6-0.1 7.1-0.2 10.7q-8.4 0-16.9 0c0 7.4 0 14.9 0 22.3c4.4 0.1 8.8 0 13.2 0.1q-0.1 5 0 10.1q-6.6 0.1-13.3 0q0 11.3 0 22.7c6.1-0.1 12.1 0 18.2-0.1c0.1 3.6 0.1 7.1 0.1 10.6c-6.3 0.1-12.7 0-19.1 0c-3.6-0.1-7.1 0-10.7 0q0-38.2 0-76.4zm64.9-0.1c3.7 0 7.4-0.1 11.2-0.1c-0.1 9.7-0.1 19.4-0.1 29.1c4.1-9.7 8.1-19.4 12.2-29.1c3.9 0.1 7.7 0 11.5 0c-4.2 9.9-8.6 19.8-12.9 29.8q-0.1 0.3 0 0.6c5.2 15.3 10.5 30.6 15.7 46q-5.7 0-11.3 0q-5-15.5-10.1-30.9c-1.7 3.3-3.4 6.6-5.1 9.9c-0.1 7.1 0 14.1 0 21.2q-5.6 0-11.1 0q0-38.3 0-76.5zm39.2-0.1q5.8 0 11.7 0c-0.1 11.6 0 23.1-0.1 34.7c0.1 10.5 0 21 0.1 31.6c5.8-0.1 11.7 0 17.6-0.1q0 5.1 0 10.1c-9.7 0-19.5 0-29.3 0c0-22.4 0-44.8 0-67.2c0-3 0-6 0-9.1zm-243.1 76.4c0-25.4-0.1-50.8 0-76.2c8.4 0.1 16.9 0 25.3 0.1c17.2-0.1 34.4 0 51.6-0.1c0.1 5.2 0 10.4 0 15.6q0 30.2 0 60.5c0 0-0.1 0.1-0.2 0.1q-32.5 0-65 0c-3.9 0-7.8 0.1-11.7 0z" />
		<path id="Path 2" fill-rule="evenodd" class="s1" d="m63.1 5c0.4 3.7 1 7.3 1.5 10.9q3 22 6.1 44c0.5 4.2 1.2 8.4 1.7 12.7q-6 0-11.9 0c-0.7-4.7-1.2-9.5-1.8-14.2q-4.6 0-9.3 0c-0.6 4.6-1.3 9.3-1.9 14c-3.8 0.1-7.5 0.1-11.2 0.1c3.6-22.5 7.1-45 10.8-67.5q8 0 16 0zm-11 31.6c-0.4 3.9-1 7.8-1.5 11.7c2.4 0 4.8 0 7.1 0c-0.2-0.2-0.2-0.5-0.3-0.8c-1.1-8.5-2.2-17-3.3-25.5c-0.7 4.9-1.3 9.7-2 14.6zm-32.5-31.6q0 26.8 0 53.7c0 1.1 0 2.2-0.1 3.3c5 0 10 0 14.9 0q0.1 5.2 0 10.5c-9.5 0-19.1 0-28.7 0c0.1-4.1 0-8.2 0.1-12.2q0-27.7 0-55.3c4.6 0.1 9.2 0 13.8 0z" />
	</g>
</svg>